<svg xmlns="http://www.w3.org/2000/svg" viewBox="0 0 100 100" width="100" height="100">
  <defs>
    <radialGradient id="ballGradient" cx="30%" cy="30%">
      <stop offset="0%" style="stop-color:#ffffff;stop-opacity:0.3"/>
      <stop offset="100%" style="stop-color:#000000;stop-opacity:0.1"/>
    </radialGradient>
  </defs>

  <!-- Main ball circle -->
  <circle cx="50" cy="50" r="45" fill="#ffffff" stroke="#000000" stroke-width="2"/>

  <!-- Ball gradient overlay -->
  <circle cx="50" cy="50" r="45" fill="url(#ballGradient)"/>

  <!-- Pentagon center -->
  <polygon points="50,25 40,35 43,48 57,48 60,35" fill="#000000"/>

  <!-- Hexagon top -->
  <polygon points="50,25 40,35 35,20 50,15 65,20 60,35" fill="none" stroke="#000000" stroke-width="2"/>

  <!-- Hexagon left -->
  <polygon points="40,35 43,48 25,55 15,40 25,25 35,20" fill="none" stroke="#000000" stroke-width="2"/>

  <!-- Hexagon right -->
  <polygon points="60,35 75,25 85,40 75,55 57,48 60,35" fill="none" stroke="#000000" stroke-width="2"/>

  <!-- Hexagon bottom left -->
  <polygon points="43,48 57,48 50,65 35,70 25,55 43,48" fill="none" stroke="#000000" stroke-width="2"/>

  <!-- Hexagon bottom right -->
  <polygon points="57,48 75,55 65,70 50,65 57,48" fill="none" stroke="#000000" stroke-width="2"/>
</svg>